<svg width="45" height="45" viewBox="0 0 45 45" fill="none" xmlns="http://www.w3.org/2000/svg">
<g id="microphone" clip-path="url(#clip0_113_80)">
<path id="Vector" d="M16.875 9.375C16.875 7.88316 17.4676 6.45242 18.5225 5.39752C19.5774 4.34263 21.0082 3.75 22.5 3.75C23.9918 3.75 25.4226 4.34263 26.4775 5.39752C27.5324 6.45242 28.125 7.88316 28.125 9.375V18.75C28.125 20.2418 27.5324 21.6726 26.4775 22.7275C25.4226 23.7824 23.9918 24.375 22.5 24.375C21.0082 24.375 19.5774 23.7824 18.5225 22.7275C17.4676 21.6726 16.875 20.2418 16.875 18.75V9.375Z" stroke="black" stroke-width="2" stroke-linecap="round" stroke-linejoin="round"/>
<path id="Vector_2" d="M9.375 18.75C9.375 22.231 10.7578 25.5694 13.2192 28.0308C15.6806 30.4922 19.019 31.875 22.5 31.875C25.981 31.875 29.3194 30.4922 31.7808 28.0308C34.2422 25.5694 35.625 22.231 35.625 18.75" stroke="black" stroke-width="2" stroke-linecap="round" stroke-linejoin="round"/>
<path id="Vector_3" d="M15 39.375H30" stroke="black" stroke-width="2" stroke-linecap="round" stroke-linejoin="round"/>
<path id="Vector_4" d="M22.5 31.875V39.375" stroke="black" stroke-width="2" stroke-linecap="round" stroke-linejoin="round"/>
</g>
<defs>
<clipPath id="clip0_113_80">
<rect width="45" height="45" fill="white"/>
</clipPath>
</defs>
</svg>
